<svg xmlns="http://www.w3.org/2000/svg" width="14.167" height="17" viewBox="0 0 14.167 17">
  <g id="trash_5_" data-name="trash (5)" transform="translate(-2)">
    <path id="Path_7601" data-name="Path 7601" d="M15.458,2.833h-2.2A3.548,3.548,0,0,0,9.792,0H8.375A3.548,3.548,0,0,0,4.9,2.833h-2.2a.708.708,0,1,0,0,1.417h.708v9.208A3.546,3.546,0,0,0,6.958,17h4.25a3.546,3.546,0,0,0,3.542-3.542V4.25h.708a.708.708,0,1,0,0-1.417ZM8.375,1.417H9.792a2.129,2.129,0,0,1,2,1.417H6.371a2.129,2.129,0,0,1,2-1.417Zm4.958,12.042a2.125,2.125,0,0,1-2.125,2.125H6.958a2.125,2.125,0,0,1-2.125-2.125V4.25h8.5Z" fill="#f33333"/>
    <path id="Path_7602" data-name="Path 7602" d="M9.708,15.667a.708.708,0,0,0,.708-.708v-4.25a.708.708,0,1,0-1.417,0v4.25A.708.708,0,0,0,9.708,15.667Z" transform="translate(-2.042 -2.917)" fill="#f33333"/>
    <path id="Path_7603" data-name="Path 7603" d="M13.708,15.667a.708.708,0,0,0,.708-.708v-4.25a.708.708,0,1,0-1.417,0v4.25A.708.708,0,0,0,13.708,15.667Z" transform="translate(-3.208 -2.917)" fill="#f33333"/>
  </g>
</svg>
